<mxfile host="app.diagrams.net" agent="Mozilla/5.0 (Windows NT 10.0; Win64; x64) AppleWebKit/537.36 (KHTML, like Gecko) Chrome/130.0.0.0 Safari/537.36" version="24.8.4">
  <diagram name="Page-1" id="un002bj4Gq6lKlUh5JdV">
    <mxGraphModel dx="2641" dy="1145" grid="1" gridSize="10" guides="1" tooltips="1" connect="1" arrows="1" fold="1" page="1" pageScale="1" pageWidth="850" pageHeight="1100" math="0" shadow="0">
      <root>
        <mxCell id="0" />
        <mxCell id="1" parent="0" />
        <mxCell id="79bOFKqXd4_xZ1KO5__c-1" value="" style="whiteSpace=wrap;html=1;aspect=fixed;" vertex="1" parent="1">
          <mxGeometry x="-20" y="20" width="910" height="910" as="geometry" />
        </mxCell>
        <mxCell id="79bOFKqXd4_xZ1KO5__c-2" value="" style="rounded=1;whiteSpace=wrap;html=1;" vertex="1" parent="1">
          <mxGeometry x="180" y="40" width="540" height="320" as="geometry" />
        </mxCell>
        <mxCell id="79bOFKqXd4_xZ1KO5__c-3" value="" style="rounded=0;whiteSpace=wrap;html=1;" vertex="1" parent="1">
          <mxGeometry x="345" y="380" width="210" height="30" as="geometry" />
        </mxCell>
        <mxCell id="79bOFKqXd4_xZ1KO5__c-4" value="Vertical Container" style="swimlane;whiteSpace=wrap;html=1;" vertex="1" parent="1">
          <mxGeometry x="110" y="450" width="200" height="200" as="geometry" />
        </mxCell>
        <mxCell id="79bOFKqXd4_xZ1KO5__c-5" value="Vertical Container" style="swimlane;whiteSpace=wrap;html=1;" vertex="1" parent="1">
          <mxGeometry x="600" y="450" width="200" height="200" as="geometry" />
        </mxCell>
        <mxCell id="79bOFKqXd4_xZ1KO5__c-6" value="Vertical Container" style="swimlane;whiteSpace=wrap;html=1;" vertex="1" parent="1">
          <mxGeometry x="355" y="450" width="200" height="200" as="geometry" />
        </mxCell>
        <mxCell id="79bOFKqXd4_xZ1KO5__c-7" value="Vertical Container" style="swimlane;whiteSpace=wrap;html=1;" vertex="1" parent="1">
          <mxGeometry x="110" y="670" width="200" height="200" as="geometry" />
        </mxCell>
        <mxCell id="79bOFKqXd4_xZ1KO5__c-8" value="Vertical Container" style="swimlane;whiteSpace=wrap;html=1;" vertex="1" parent="1">
          <mxGeometry x="355" y="670" width="200" height="200" as="geometry" />
        </mxCell>
        <mxCell id="79bOFKqXd4_xZ1KO5__c-9" value="Vertical Container" style="swimlane;whiteSpace=wrap;html=1;" vertex="1" parent="1">
          <mxGeometry x="600" y="670" width="200" height="200" as="geometry" />
        </mxCell>
        <mxCell id="79bOFKqXd4_xZ1KO5__c-10" value="" style="shape=callout;whiteSpace=wrap;html=1;perimeter=calloutPerimeter;" vertex="1" parent="1">
          <mxGeometry x="740" y="90" width="120" height="240" as="geometry" />
        </mxCell>
        <mxCell id="79bOFKqXd4_xZ1KO5__c-11" value="Missing gym found ?" style="text;html=1;align=center;verticalAlign=middle;whiteSpace=wrap;rounded=0;" vertex="1" parent="1">
          <mxGeometry x="750" y="110" width="100" height="50" as="geometry" />
        </mxCell>
        <mxCell id="79bOFKqXd4_xZ1KO5__c-12" value="" style="shape=flexArrow;endArrow=classic;html=1;rounded=0;endWidth=58;endSize=9.33;width=52;" edge="1" parent="1">
          <mxGeometry width="50" height="50" relative="1" as="geometry">
            <mxPoint x="760" y="240" as="sourcePoint" />
            <mxPoint x="840" y="240" as="targetPoint" />
            <Array as="points">
              <mxPoint x="800" y="240" />
            </Array>
          </mxGeometry>
        </mxCell>
        <mxCell id="79bOFKqXd4_xZ1KO5__c-15" value="Form page" style="edgeLabel;html=1;align=center;verticalAlign=middle;resizable=0;points=[];" vertex="1" connectable="0" parent="79bOFKqXd4_xZ1KO5__c-12">
          <mxGeometry x="0.25" y="-15" relative="1" as="geometry">
            <mxPoint x="-10" y="-15" as="offset" />
          </mxGeometry>
        </mxCell>
      </root>
    </mxGraphModel>
  </diagram>
</mxfile>
